<svg xmlns="http://www.w3.org/2000/svg" width="32" height="32" viewBox="0 0 32 32">
  <style>
    .letter { fill: #2563eb; }
    .brain { fill: #8b5cf6; }
    @media (prefers-color-scheme: dark) {
      .letter { fill: #3b82f6; }
      .brain { fill: #a78bfa; }
    }
  </style>
  <rect width="32" height="32" rx="8" fill="#fff" />
  <path class="letter" d="M14.5,22.5h-7V7.5h7c4.1,0,7,2.9,7,7.5S18.6,22.5,14.5,22.5z M10.5,19.5h4c2.2,0,4-2,4-4.5s-1.8-4.5-4-4.5h-4V19.5z" />
  <path class="brain" d="M24.5,11c0-1.1-0.9-2-2-2s-2,0.9-2,2c0,0.8,0.5,1.5,1.2,1.8c-0.3,0.6-0.7,1.1-1.2,1.5c-0.5-0.3-1-0.5-1.5-0.6v-0.7c0-0.6-0.4-1-1-1s-1,0.4-1,1v0.7c-0.5,0.1-1,0.3-1.5,0.6c-0.5-0.4-0.9-0.9-1.2-1.5c0.7-0.3,1.2-1,1.2-1.8c0-1.1-0.9-2-2-2s-2,0.9-2,2c0,0.8,0.5,1.5,1.2,1.8c-0.3,0.6-0.7,1.1-1.2,1.5c-0.5-0.3-1-0.5-1.5-0.6v-0.7c0-0.6-0.4-1-1-1s-1,0.4-1,1v0.7c-0.5,0.1-1,0.3-1.5,0.6c-0.5-0.4-0.9-0.9-1.2-1.5c0.7-0.3,1.2-1,1.2-1.8c0-1.1-0.9-2-2-2s-2,0.9-2,2" transform="scale(0.75) translate(8, 16)" />
</svg>